<mxfile host="app.diagrams.net" modified="2024-05-20T10:21:22.804Z" agent="Mozilla/5.0 (Windows NT 10.0; Win64; x64) AppleWebKit/537.36 (KHTML, like Gecko) Chrome/123.0.0.0 Safari/537.36 OPR/109.0.0.0" etag="ymixO48u6HpTjGyodHXP" version="24.4.4" type="google">
  <diagram name="Pagina-1" id="llneEzFeN3V9gYq4IAdD">
    <mxGraphModel grid="1" page="1" gridSize="10" guides="1" tooltips="1" connect="1" arrows="1" fold="1" pageScale="1" pageWidth="827" pageHeight="1169" math="0" shadow="0">
      <root>
        <mxCell id="0" />
        <mxCell id="1" parent="0" />
        <mxCell id="FSn6QTFZiRwgJY9tQXng-2" value="" style="shape=umlLifeline;perimeter=lifelinePerimeter;whiteSpace=wrap;html=1;container=1;dropTarget=0;collapsible=0;recursiveResize=0;outlineConnect=0;portConstraint=eastwest;newEdgeStyle={&quot;curved&quot;:0,&quot;rounded&quot;:0};participant=umlActor;" vertex="1" parent="1">
          <mxGeometry x="150" y="120" width="20" height="1170" as="geometry" />
        </mxCell>
        <mxCell id="FSn6QTFZiRwgJY9tQXng-3" value=":System" style="shape=umlLifeline;perimeter=lifelinePerimeter;whiteSpace=wrap;html=1;container=1;dropTarget=0;collapsible=0;recursiveResize=0;outlineConnect=0;portConstraint=eastwest;newEdgeStyle={&quot;curved&quot;:0,&quot;rounded&quot;:0};" vertex="1" parent="1">
          <mxGeometry x="510" y="120" width="100" height="1180" as="geometry" />
        </mxCell>
        <mxCell id="FSn6QTFZiRwgJY9tQXng-4" value="1. creoFoglioPreparazioni(evento, active?)" style="html=1;verticalAlign=bottom;endArrow=block;curved=0;rounded=0;" edge="1" parent="1" target="FSn6QTFZiRwgJY9tQXng-3">
          <mxGeometry x="0.0013" width="80" relative="1" as="geometry">
            <mxPoint x="160" y="200" as="sourcePoint" />
            <mxPoint x="240" y="200" as="targetPoint" />
            <mxPoint as="offset" />
          </mxGeometry>
        </mxCell>
        <mxCell id="FSn6QTFZiRwgJY9tQXng-5" value="foglioPreparazioni creato" style="html=1;verticalAlign=bottom;endArrow=open;dashed=1;endSize=8;curved=0;rounded=0;" edge="1" parent="1" source="FSn6QTFZiRwgJY9tQXng-3">
          <mxGeometry x="0.0013" relative="1" as="geometry">
            <mxPoint x="240" y="240" as="sourcePoint" />
            <mxPoint x="160" y="240" as="targetPoint" />
            <mxPoint as="offset" />
          </mxGeometry>
        </mxCell>
        <mxCell id="FSn6QTFZiRwgJY9tQXng-6" value="1a.1 eliminaFoglioPreparazioni(foglioPreparazioni, evento)" style="html=1;verticalAlign=bottom;endArrow=block;curved=0;rounded=0;" edge="1" parent="1">
          <mxGeometry width="80" relative="1" as="geometry">
            <mxPoint x="160" y="320" as="sourcePoint" />
            <mxPoint x="560" y="320" as="targetPoint" />
          </mxGeometry>
        </mxCell>
        <mxCell id="FSn6QTFZiRwgJY9tQXng-7" value="foglioPreparazioni eliminato" style="html=1;verticalAlign=bottom;endArrow=open;dashed=1;endSize=8;curved=0;rounded=0;" edge="1" parent="1">
          <mxGeometry relative="1" as="geometry">
            <mxPoint x="560" y="360" as="sourcePoint" />
            <mxPoint x="160" y="360" as="targetPoint" />
          </mxGeometry>
        </mxCell>
        <mxCell id="FSn6QTFZiRwgJY9tQXng-8" value="&lt;div&gt;&lt;/div&gt;&lt;div&gt;&lt;br&gt;&lt;/div&gt;&lt;div&gt;&lt;br&gt;&lt;/div&gt;" style="html=1;verticalAlign=bottom;endArrow=block;curved=0;rounded=0;" edge="1" parent="1">
          <mxGeometry width="80" relative="1" as="geometry">
            <mxPoint x="160" y="440" as="sourcePoint" />
            <mxPoint x="560" y="440" as="targetPoint" />
          </mxGeometry>
        </mxCell>
        <mxCell id="FSn6QTFZiRwgJY9tQXng-31" value="1b.1 scelgoFoglioPreparazioni(foglioPreparazioni, evento)" style="edgeLabel;html=1;align=center;verticalAlign=middle;resizable=0;points=[];" connectable="0" vertex="1" parent="FSn6QTFZiRwgJY9tQXng-8">
          <mxGeometry x="0.0021" y="11" relative="1" as="geometry">
            <mxPoint as="offset" />
          </mxGeometry>
        </mxCell>
        <mxCell id="FSn6QTFZiRwgJY9tQXng-9" value="ok" style="html=1;verticalAlign=bottom;endArrow=open;dashed=1;endSize=8;curved=0;rounded=0;" edge="1" parent="1">
          <mxGeometry relative="1" as="geometry">
            <mxPoint x="560" y="480" as="sourcePoint" />
            <mxPoint x="160" y="480" as="targetPoint" />
          </mxGeometry>
        </mxCell>
        <mxCell id="FSn6QTFZiRwgJY9tQXng-10" value="1c.1 copiaFoglioPreparazioni(foglioPreparazioni, evento )" style="html=1;verticalAlign=bottom;endArrow=block;curved=0;rounded=0;" edge="1" parent="1">
          <mxGeometry width="80" relative="1" as="geometry">
            <mxPoint x="160" y="520" as="sourcePoint" />
            <mxPoint x="560" y="520" as="targetPoint" />
            <mxPoint as="offset" />
          </mxGeometry>
        </mxCell>
        <mxCell id="FSn6QTFZiRwgJY9tQXng-11" value="foglioPreparazioni duplicato" style="html=1;verticalAlign=bottom;endArrow=open;dashed=1;endSize=8;curved=0;rounded=0;" edge="1" parent="1">
          <mxGeometry relative="1" as="geometry">
            <mxPoint x="560" y="560" as="sourcePoint" />
            <mxPoint x="160" y="560" as="targetPoint" />
          </mxGeometry>
        </mxCell>
        <mxCell id="yt5xjPj3pXp9j-56CdNH-1" value="foglioPreparazioni aggiornato" style="html=1;verticalAlign=bottom;endArrow=open;dashed=1;endSize=8;curved=0;rounded=0;" edge="1" parent="1">
          <mxGeometry relative="1" as="geometry">
            <mxPoint x="558" y="1248.9999999999998" as="sourcePoint" />
            <mxPoint x="158.5" y="1249" as="targetPoint" />
          </mxGeometry>
        </mxCell>
        <mxCell id="yt5xjPj3pXp9j-56CdNH-2" value="5a.1. rimuovoAssegnamento(foglioPreparazioni, personale)" style="html=1;verticalAlign=bottom;endArrow=block;curved=0;rounded=0;" edge="1" parent="1">
          <mxGeometry x="0.0013" width="80" relative="1" as="geometry">
            <mxPoint x="159.5" y="1140" as="sourcePoint" />
            <mxPoint x="559" y="1139.9999999999998" as="targetPoint" />
            <mxPoint as="offset" />
          </mxGeometry>
        </mxCell>
        <mxCell id="yt5xjPj3pXp9j-56CdNH-3" value="foglioPreparazioni aggiornato" style="html=1;verticalAlign=bottom;endArrow=open;dashed=1;endSize=8;curved=0;rounded=0;" edge="1" parent="1">
          <mxGeometry x="-0.0038" y="1" relative="1" as="geometry">
            <mxPoint x="559" y="1168.9999999999998" as="sourcePoint" />
            <mxPoint x="159.5" y="1169" as="targetPoint" />
            <mxPoint as="offset" />
          </mxGeometry>
        </mxCell>
        <mxCell id="yt5xjPj3pXp9j-56CdNH-4" value="5. assegnaPreparazione(foglioPreparazioni, preparazione, turno, personale)" style="html=1;verticalAlign=bottom;endArrow=block;curved=0;rounded=0;" edge="1" parent="1">
          <mxGeometry x="0.0013" width="80" relative="1" as="geometry">
            <mxPoint x="161.5" y="1008" as="sourcePoint" />
            <mxPoint x="561" y="1007.9999999999998" as="targetPoint" />
            <mxPoint as="offset" />
          </mxGeometry>
        </mxCell>
        <mxCell id="yt5xjPj3pXp9j-56CdNH-5" value="foglioPreparazioni aggiornato" style="html=1;verticalAlign=bottom;endArrow=open;dashed=1;endSize=8;curved=0;rounded=0;" edge="1" parent="1">
          <mxGeometry relative="1" as="geometry">
            <mxPoint x="560" y="1047.9999999999998" as="sourcePoint" />
            <mxPoint x="160.5" y="1048" as="targetPoint" />
          </mxGeometry>
        </mxCell>
        <mxCell id="yt5xjPj3pXp9j-56CdNH-8" value="2. aggiungiPreparazione(foglioPreparazioni, nome?, descrizione?, porzioni)" style="html=1;verticalAlign=bottom;endArrow=block;curved=0;rounded=0;" edge="1" parent="1">
          <mxGeometry x="-0.0011" width="80" relative="1" as="geometry">
            <mxPoint x="160.5" y="610" as="sourcePoint" />
            <mxPoint x="560" y="610" as="targetPoint" />
            <mxPoint as="offset" />
          </mxGeometry>
        </mxCell>
        <mxCell id="yt5xjPj3pXp9j-56CdNH-9" value="preparazione creata, foglioPreparazioni aggiornato, lista eccessi creata" style="html=1;verticalAlign=bottom;endArrow=open;dashed=1;endSize=8;curved=0;rounded=0;" edge="1" parent="1">
          <mxGeometry x="-0.0011" relative="1" as="geometry">
            <mxPoint x="557" y="650" as="sourcePoint" />
            <mxPoint x="157.5" y="650" as="targetPoint" />
            <mxPoint as="offset" />
          </mxGeometry>
        </mxCell>
        <mxCell id="yt5xjPj3pXp9j-56CdNH-10" value="5b.1 modificoAssegnamento(foglioPreparazioni, personale, preparazione)" style="html=1;verticalAlign=bottom;endArrow=block;curved=0;rounded=0;" edge="1" parent="1">
          <mxGeometry width="80" relative="1" as="geometry">
            <mxPoint x="160.5" y="1207" as="sourcePoint" />
            <mxPoint x="560.0000000000001" y="1207" as="targetPoint" />
          </mxGeometry>
        </mxCell>
        <mxCell id="FSn6QTFZiRwgJY9tQXng-12" value="ALT" style="shape=umlFrame;whiteSpace=wrap;html=1;pointerEvents=0;" vertex="1" parent="1">
          <mxGeometry x="70" y="170" width="540" height="410" as="geometry" />
        </mxCell>
        <mxCell id="FSn6QTFZiRwgJY9tQXng-16" value="" style="endArrow=none;dashed=1;html=1;rounded=0;exitX=0;exitY=0.315;exitDx=0;exitDy=0;exitPerimeter=0;entryX=1;entryY=0.318;entryDx=0;entryDy=0;entryPerimeter=0;" edge="1" parent="1" source="FSn6QTFZiRwgJY9tQXng-12" target="FSn6QTFZiRwgJY9tQXng-12">
          <mxGeometry width="50" height="50" relative="1" as="geometry">
            <mxPoint x="93.51999999999998" y="300.00000000000006" as="sourcePoint" />
            <mxPoint x="574" y="300.47999999999996" as="targetPoint" />
          </mxGeometry>
        </mxCell>
        <mxCell id="FSn6QTFZiRwgJY9tQXng-17" value="ALT" style="shape=umlFrame;whiteSpace=wrap;html=1;pointerEvents=0;width=40;height=20;fillColor=#f8cecc;strokeColor=#b85450;" vertex="1" parent="1">
          <mxGeometry x="120" y="220" width="450" height="70" as="geometry" />
        </mxCell>
        <mxCell id="FSn6QTFZiRwgJY9tQXng-18" value="" style="endArrow=none;dashed=1;html=1;rounded=0;exitX=0;exitY=0.607;exitDx=0;exitDy=0;exitPerimeter=0;entryX=1.001;entryY=0.614;entryDx=0;entryDy=0;entryPerimeter=0;fillColor=#f8cecc;strokeColor=#b85450;" edge="1" parent="1">
          <mxGeometry width="50" height="50" relative="1" as="geometry">
            <mxPoint x="119.55" y="254.70999999999995" as="sourcePoint" />
            <mxPoint x="569.9999999999999" y="255.1299999999999" as="targetPoint" />
          </mxGeometry>
        </mxCell>
        <mxCell id="FSn6QTFZiRwgJY9tQXng-19" value="(1-1a-1b-1c)a.1 evento non in carico" style="html=1;verticalAlign=bottom;endArrow=open;dashed=1;endSize=8;curved=0;rounded=0;" edge="1" parent="1" target="FSn6QTFZiRwgJY9tQXng-2">
          <mxGeometry relative="1" as="geometry">
            <mxPoint x="560" y="280" as="sourcePoint" />
            <mxPoint x="480" y="280" as="targetPoint" />
          </mxGeometry>
        </mxCell>
        <mxCell id="FSn6QTFZiRwgJY9tQXng-23" value="" style="shape=mxgraph.sysml.x;" vertex="1" parent="1">
          <mxGeometry x="555" y="275" width="10" height="10" as="geometry" />
        </mxCell>
        <mxCell id="FSn6QTFZiRwgJY9tQXng-25" value="ALT" style="shape=umlFrame;whiteSpace=wrap;html=1;pointerEvents=0;width=40;height=20;fillColor=#f8cecc;strokeColor=#b85450;" vertex="1" parent="1">
          <mxGeometry x="120.45" y="340" width="450" height="70" as="geometry" />
        </mxCell>
        <mxCell id="FSn6QTFZiRwgJY9tQXng-26" value="" style="endArrow=none;dashed=1;html=1;rounded=0;exitX=0;exitY=0.607;exitDx=0;exitDy=0;exitPerimeter=0;entryX=1.001;entryY=0.614;entryDx=0;entryDy=0;entryPerimeter=0;fillColor=#f8cecc;strokeColor=#b85450;" edge="1" parent="1">
          <mxGeometry width="50" height="50" relative="1" as="geometry">
            <mxPoint x="120.00000000000001" y="374.7099999999999" as="sourcePoint" />
            <mxPoint x="570.4499999999999" y="375.1299999999999" as="targetPoint" />
          </mxGeometry>
        </mxCell>
        <mxCell id="FSn6QTFZiRwgJY9tQXng-27" value="" style="shape=mxgraph.sysml.x;" vertex="1" parent="1">
          <mxGeometry x="555" y="390" width="10" height="10" as="geometry" />
        </mxCell>
        <mxCell id="FSn6QTFZiRwgJY9tQXng-28" value="1a.1a.1/1a.1b.1 foglioPreparazioni in uso / non proprietario" style="html=1;verticalAlign=bottom;endArrow=open;dashed=1;endSize=8;curved=0;rounded=0;" edge="1" parent="1">
          <mxGeometry relative="1" as="geometry">
            <mxPoint x="560" y="395" as="sourcePoint" />
            <mxPoint x="160" y="395" as="targetPoint" />
          </mxGeometry>
        </mxCell>
        <mxCell id="FSn6QTFZiRwgJY9tQXng-32" value="" style="endArrow=none;dashed=1;html=1;rounded=0;entryX=0.999;entryY=0.814;entryDx=0;entryDy=0;entryPerimeter=0;" edge="1" parent="1">
          <mxGeometry width="50" height="50" relative="1" as="geometry">
            <mxPoint x="72" y="497" as="sourcePoint" />
            <mxPoint x="609.4600000000003" y="500.74" as="targetPoint" />
          </mxGeometry>
        </mxCell>
        <mxCell id="FSn6QTFZiRwgJY9tQXng-33" value="ALT" style="shape=umlFrame;whiteSpace=wrap;html=1;pointerEvents=0;" vertex="1" parent="1">
          <mxGeometry x="70" y="585" width="540" height="155" as="geometry" />
        </mxCell>
        <mxCell id="FSn6QTFZiRwgJY9tQXng-34" value="" style="endArrow=none;dashed=1;html=1;rounded=0;entryX=1;entryY=0.484;entryDx=0;entryDy=0;entryPerimeter=0;exitX=-0.001;exitY=0.494;exitDx=0;exitDy=0;exitPerimeter=0;" edge="1" parent="1" source="FSn6QTFZiRwgJY9tQXng-33" target="FSn6QTFZiRwgJY9tQXng-33">
          <mxGeometry width="50" height="50" relative="1" as="geometry">
            <mxPoint x="70" y="660" as="sourcePoint" />
            <mxPoint x="607.4600000000003" y="663.74" as="targetPoint" />
          </mxGeometry>
        </mxCell>
        <mxCell id="FSn6QTFZiRwgJY9tQXng-35" value="2a.1 recuperoEccesso(foglioPreparazioni, listaEccessi, preparazione)" style="html=1;verticalAlign=bottom;endArrow=block;curved=0;rounded=0;" edge="1" parent="1">
          <mxGeometry width="80" relative="1" as="geometry">
            <mxPoint x="161.5" y="685" as="sourcePoint" />
            <mxPoint x="561" y="685" as="targetPoint" />
          </mxGeometry>
        </mxCell>
        <mxCell id="FSn6QTFZiRwgJY9tQXng-36" value="foglioPreparazioni aggiornato, listaEccessi aggiornata" style="html=1;verticalAlign=bottom;endArrow=open;dashed=1;endSize=8;curved=0;rounded=0;" edge="1" parent="1">
          <mxGeometry relative="1" as="geometry">
            <mxPoint x="559" y="722" as="sourcePoint" />
            <mxPoint x="159" y="722" as="targetPoint" />
          </mxGeometry>
        </mxCell>
        <mxCell id="FSn6QTFZiRwgJY9tQXng-37" value="3. ordinoPreparazioni(foglioPreparazioni,ordine?)" style="html=1;verticalAlign=bottom;endArrow=block;curved=0;rounded=0;" edge="1" parent="1">
          <mxGeometry width="80" relative="1" as="geometry">
            <mxPoint x="160" y="770" as="sourcePoint" />
            <mxPoint x="560" y="770" as="targetPoint" />
            <mxPoint as="offset" />
          </mxGeometry>
        </mxCell>
        <mxCell id="FSn6QTFZiRwgJY9tQXng-38" value="foglioPreparazioni aggiornato" style="html=1;verticalAlign=bottom;endArrow=open;dashed=1;endSize=8;curved=0;rounded=0;" edge="1" parent="1">
          <mxGeometry x="-0.001" relative="1" as="geometry">
            <mxPoint x="560" y="810" as="sourcePoint" />
            <mxPoint x="160" y="810" as="targetPoint" />
            <mxPoint as="offset" />
          </mxGeometry>
        </mxCell>
        <mxCell id="FSn6QTFZiRwgJY9tQXng-43" value="4.consultaTabellone(TabellaDeiTurni)" style="html=1;verticalAlign=bottom;endArrow=block;curved=0;rounded=0;" edge="1" parent="1">
          <mxGeometry x="0.0011" width="80" relative="1" as="geometry">
            <mxPoint x="160" y="860" as="sourcePoint" />
            <mxPoint x="560" y="860" as="targetPoint" />
            <mxPoint as="offset" />
          </mxGeometry>
        </mxCell>
        <mxCell id="FSn6QTFZiRwgJY9tQXng-44" value="ok" style="html=1;verticalAlign=bottom;endArrow=open;dashed=1;endSize=8;curved=0;rounded=0;" edge="1" parent="1">
          <mxGeometry relative="1" as="geometry">
            <mxPoint x="560" y="900" as="sourcePoint" />
            <mxPoint x="160" y="900" as="targetPoint" />
          </mxGeometry>
        </mxCell>
        <mxCell id="FSn6QTFZiRwgJY9tQXng-45" value="OPT" style="shape=umlFrame;whiteSpace=wrap;html=1;pointerEvents=0;" vertex="1" parent="1">
          <mxGeometry x="100" y="830" width="480" height="150" as="geometry" />
        </mxCell>
        <mxCell id="FSn6QTFZiRwgJY9tQXng-46" value="ALT" style="shape=umlFrame;whiteSpace=wrap;html=1;pointerEvents=0;width=40;height=20;fillColor=#f8cecc;strokeColor=#b85450;shadow=0;labelBackgroundColor=none;" vertex="1" parent="1">
          <mxGeometry x="120.89999999999999" y="880" width="450" height="70" as="geometry" />
        </mxCell>
        <mxCell id="FSn6QTFZiRwgJY9tQXng-47" value="" style="endArrow=none;dashed=1;html=1;rounded=0;exitX=0;exitY=0.607;exitDx=0;exitDy=0;exitPerimeter=0;entryX=1.001;entryY=0.614;entryDx=0;entryDy=0;entryPerimeter=0;fillColor=#f8cecc;strokeColor=default;shadow=0;labelBackgroundColor=none;" edge="1" parent="1">
          <mxGeometry width="50" height="50" relative="1" as="geometry">
            <mxPoint x="120.45" y="914.7099999999999" as="sourcePoint" />
            <mxPoint x="570.9" y="915.1299999999999" as="targetPoint" />
          </mxGeometry>
        </mxCell>
        <mxCell id="FSn6QTFZiRwgJY9tQXng-48" value="4a.1 evento di riferimento non corrispondente" style="html=1;verticalAlign=bottom;endArrow=open;dashed=1;endSize=8;curved=0;rounded=0;" edge="1" parent="1">
          <mxGeometry relative="1" as="geometry">
            <mxPoint x="559" y="936" as="sourcePoint" />
            <mxPoint x="159" y="936" as="targetPoint" />
          </mxGeometry>
        </mxCell>
        <mxCell id="FSn6QTFZiRwgJY9tQXng-51" value="ALT" style="shape=umlFrame;whiteSpace=wrap;html=1;pointerEvents=0;width=40;height=20;fillColor=#f8cecc;strokeColor=#b85450;shadow=0;labelBackgroundColor=none;" vertex="1" parent="1">
          <mxGeometry x="120.67" y="1020" width="450" height="80" as="geometry" />
        </mxCell>
        <mxCell id="FSn6QTFZiRwgJY9tQXng-52" value="" style="endArrow=none;dashed=1;html=1;rounded=0;exitX=0;exitY=0.607;exitDx=0;exitDy=0;exitPerimeter=0;entryX=1.001;entryY=0.614;entryDx=0;entryDy=0;entryPerimeter=0;fillColor=#f8cecc;strokeColor=default;shadow=0;labelBackgroundColor=none;" edge="1" parent="1">
          <mxGeometry width="50" height="50" relative="1" as="geometry">
            <mxPoint x="120.21999999999998" y="1054.71" as="sourcePoint" />
            <mxPoint x="570.67" y="1055.1299999999999" as="targetPoint" />
          </mxGeometry>
        </mxCell>
        <mxCell id="FSn6QTFZiRwgJY9tQXng-53" value="5a.1/5b.1 personale già assegnato/ violazione regole di buisness" style="html=1;verticalAlign=bottom;endArrow=open;dashed=1;endSize=8;curved=0;rounded=0;exitX=0.5;exitY=0.638;exitDx=0;exitDy=0;exitPerimeter=0;" edge="1" parent="1">
          <mxGeometry relative="1" as="geometry">
            <mxPoint x="560" y="1080.0000000000002" as="sourcePoint" />
            <mxPoint x="159.78571428571433" y="1080.0000000000002" as="targetPoint" />
          </mxGeometry>
        </mxCell>
        <mxCell id="FSn6QTFZiRwgJY9tQXng-54" value="ALT" style="shape=umlFrame;whiteSpace=wrap;html=1;pointerEvents=0;" vertex="1" parent="1">
          <mxGeometry x="70" y="990" width="540" height="270" as="geometry" />
        </mxCell>
        <mxCell id="FSn6QTFZiRwgJY9tQXng-55" value="" style="endArrow=none;dashed=1;html=1;rounded=0;entryX=1;entryY=0.484;entryDx=0;entryDy=0;entryPerimeter=0;exitX=-0.001;exitY=0.494;exitDx=0;exitDy=0;exitPerimeter=0;" edge="1" parent="1" source="FSn6QTFZiRwgJY9tQXng-54" target="FSn6QTFZiRwgJY9tQXng-54">
          <mxGeometry width="50" height="50" relative="1" as="geometry">
            <mxPoint x="70" y="1065" as="sourcePoint" />
            <mxPoint x="607.4600000000003" y="1068.74" as="targetPoint" />
          </mxGeometry>
        </mxCell>
        <mxCell id="FSn6QTFZiRwgJY9tQXng-56" value="" style="endArrow=none;dashed=1;html=1;rounded=0;entryX=1;entryY=0.484;entryDx=0;entryDy=0;entryPerimeter=0;exitX=-0.001;exitY=0.494;exitDx=0;exitDy=0;exitPerimeter=0;" edge="1" parent="1">
          <mxGeometry width="50" height="50" relative="1" as="geometry">
            <mxPoint x="69" y="1183" as="sourcePoint" />
            <mxPoint x="610" y="1180" as="targetPoint" />
          </mxGeometry>
        </mxCell>
      </root>
    </mxGraphModel>
  </diagram>
</mxfile>
